G04 DipTrace 3.0.0.2*
G04 BottomSilk.gbr*
%MOMM*%
G04 #@! TF.FileFunction,Legend,Bot*
G04 #@! TF.Part,Single*
%ADD15C,1.0*%
%ADD16C,0.3*%
%ADD94C,0.31373*%
%ADD95C,0.39216*%
%FSLAX35Y35*%
G04*
G71*
G90*
G75*
G01*
G04 BotSilk*
%LPD*%
X3440000Y1700000D2*
D15*
Y140000D1*
X4570000Y1480000D2*
D16*
X4440000D1*
Y940000D1*
X4570000D1*
Y880000D2*
X4440000D1*
Y340000D1*
X4570000D1*
X3230652Y456430D2*
D94*
Y252254D1*
X3114077D1*
X3051332Y329971D2*
X2934756D1*
Y349513D1*
X2944415Y369054D1*
X2954073Y378713D1*
X2973615Y388371D1*
X3002815D1*
X3022132Y378713D1*
X3041673Y359171D1*
X3051332Y329971D1*
Y310654D1*
X3041673Y281454D1*
X3022132Y262138D1*
X3002815Y252254D1*
X2973615D1*
X2954073Y262138D1*
X2934756Y281454D1*
X2755436Y456430D2*
Y252254D1*
Y359171D2*
X2774753Y378713D1*
X2794294Y388371D1*
X2823494D1*
X2842811Y378713D1*
X2862353Y359171D1*
X2872011Y329971D1*
Y310654D1*
X2862353Y281454D1*
X2842811Y262138D1*
X2823494Y252254D1*
X2794294D1*
X2774753Y262138D1*
X2755436Y281454D1*
X2692691Y354230D2*
X2580383D1*
X2517638Y218562D2*
X2333004D1*
X2211859Y456430D2*
X2231400Y446771D1*
X2250717Y427230D1*
X2260600Y407913D1*
X2270259Y378713D1*
Y329971D1*
X2260600Y300996D1*
X2250717Y281454D1*
X2231400Y262138D1*
X2211859Y252254D1*
X2173000D1*
X2153683Y262138D1*
X2134142Y281454D1*
X2124483Y300996D1*
X2114825Y329971D1*
Y378713D1*
X2124483Y407913D1*
X2134142Y427230D1*
X2153683Y446771D1*
X2173000Y456430D1*
X2211859D1*
X2052080Y388371D2*
Y252254D1*
Y349513D2*
X2022880Y378713D1*
X2003338Y388371D1*
X1974363D1*
X1954821Y378713D1*
X1945163Y349513D1*
Y252254D1*
X1882418Y456205D2*
X1746301Y252254D1*
X1673897Y271796D2*
X1683556Y261913D1*
X1673897Y252254D1*
X1664014Y261913D1*
X1673897Y271796D1*
X1591611D2*
X1601269Y261913D1*
X1591611Y252254D1*
X1581728Y261913D1*
X1591611Y271796D1*
X1509324D2*
X1518983Y261913D1*
X1509324Y252254D1*
X1499441Y261913D1*
X1509324Y271796D1*
X1378296Y456430D2*
X1397837Y446771D1*
X1417154Y427230D1*
X1427037Y407913D1*
X1436696Y378713D1*
Y329971D1*
X1427037Y300996D1*
X1417154Y281454D1*
X1397837Y262138D1*
X1378296Y252254D1*
X1339437D1*
X1320121Y262138D1*
X1300579Y281454D1*
X1290921Y300996D1*
X1281262Y329971D1*
Y378713D1*
X1290921Y407913D1*
X1300579Y427230D1*
X1320121Y446771D1*
X1339437Y456430D1*
X1378296D1*
X1072742Y407913D2*
X1082400Y427230D1*
X1101942Y446771D1*
X1121259Y456430D1*
X1160117D1*
X1179659Y446771D1*
X1198975Y427230D1*
X1208859Y407913D1*
X1218517Y378713D1*
Y329971D1*
X1208859Y300996D1*
X1198975Y281454D1*
X1179659Y262138D1*
X1160117Y252254D1*
X1121259D1*
X1101942Y262138D1*
X1082400Y281454D1*
X1072742Y300996D1*
X1009997Y349513D2*
X922397D1*
X893421Y359171D1*
X883538Y369054D1*
X873880Y388371D1*
Y417571D1*
X883538Y436888D1*
X893421Y446771D1*
X922397Y456430D1*
X1009997D1*
Y252254D1*
X3028437Y1446767D2*
X3154671D1*
Y1242591D1*
X3028437D1*
X3154671Y1349508D2*
X3076954D1*
X2849117Y1378708D2*
Y1242591D1*
Y1349508D2*
X2868434Y1369050D1*
X2887975Y1378708D1*
X2916951D1*
X2936492Y1369050D1*
X2955809Y1349508D1*
X2965692Y1320308D1*
Y1300991D1*
X2955809Y1271791D1*
X2936492Y1252474D1*
X2916951Y1242591D1*
X2887975D1*
X2868434Y1252474D1*
X2849117Y1271791D1*
X2679455Y1349508D2*
X2689113Y1369050D1*
X2718313Y1378708D1*
X2747513D1*
X2776713Y1369050D1*
X2786372Y1349508D1*
X2776713Y1330191D1*
X2757172Y1320308D1*
X2708655Y1310650D1*
X2689113Y1300991D1*
X2679455Y1281450D1*
Y1271791D1*
X2689113Y1252474D1*
X2718313Y1242591D1*
X2747513D1*
X2776713Y1252474D1*
X2786372Y1271791D1*
X2606827Y1378708D2*
X2548651Y1242591D1*
X2567968Y1203733D1*
X2587510Y1184191D1*
X2606827Y1174533D1*
X2616710D1*
X2490251Y1378708D2*
X2548651Y1242591D1*
X2427506Y1446767D2*
X2349789Y1242591D1*
X2272072Y1446767D1*
X2160810Y1378708D2*
X2180127Y1369050D1*
X2199669Y1349508D1*
X2209327Y1320308D1*
Y1300991D1*
X2199669Y1271791D1*
X2180127Y1252474D1*
X2160810Y1242591D1*
X2131610D1*
X2112069Y1252474D1*
X2092752Y1271791D1*
X2082869Y1300991D1*
Y1320308D1*
X2092752Y1349508D1*
X2112069Y1369050D1*
X2131610Y1378708D1*
X2160810D1*
X2020124Y1446767D2*
Y1242591D1*
X1928179Y1446767D2*
Y1281450D1*
X1918520Y1252474D1*
X1898979Y1242591D1*
X1879662D1*
X1957379Y1378708D2*
X1889320D1*
X1710000Y1349508D2*
X1719658Y1369050D1*
X1748858Y1378708D1*
X1778058D1*
X1807258Y1369050D1*
X1816917Y1349508D1*
X1807258Y1330191D1*
X1787717Y1320308D1*
X1739200Y1310650D1*
X1719658Y1300991D1*
X1710000Y1281450D1*
Y1271791D1*
X1719658Y1252474D1*
X1748858Y1242591D1*
X1778058D1*
X1807258Y1252474D1*
X1816917Y1271791D1*
X4643421Y1701146D2*
D95*
Y1482427D1*
X4752640Y1591646D2*
X4533921D1*
X4825779Y1369508D2*
D94*
X4738403D1*
X4709203Y1379391D1*
X4699320Y1389050D1*
X4689662Y1408367D1*
Y1427908D1*
X4699320Y1447225D1*
X4709203Y1457108D1*
X4738403Y1466767D1*
X4825779D1*
Y1262591D1*
X4757720Y1369508D2*
X4689662Y1262591D1*
X4626917Y1398708D2*
X4520000Y1262591D1*
Y1398708D2*
X4626917Y1262591D1*
X4757720Y1196767D2*
Y992591D1*
X4825779Y1196767D2*
X4689662D1*
X4626917Y1128708D2*
X4520000Y992591D1*
Y1128708D2*
X4626917Y992591D1*
X4776117Y631767D2*
Y427591D1*
X4688517D1*
X4659317Y437474D1*
X4649658Y447133D1*
X4640000Y466450D1*
Y495650D1*
X4649658Y515191D1*
X4659317Y524850D1*
X4688517Y534508D1*
X4659317Y544391D1*
X4649658Y554050D1*
X4640000Y573367D1*
Y592908D1*
X4649658Y612225D1*
X4659317Y622108D1*
X4688517Y631767D1*
X4776117D1*
Y534508D2*
X4688517D1*
X4630000Y672594D2*
X4707941Y876770D1*
X4785658Y672594D1*
X4756458Y740653D2*
X4659200D1*
X4688982Y278250D2*
X4698641Y297567D1*
X4718182Y317108D1*
X4737499Y326767D1*
X4776357D1*
X4795899Y317108D1*
X4815216Y297567D1*
X4825099Y278250D1*
X4834757Y249050D1*
Y200308D1*
X4825099Y171333D1*
X4815216Y151791D1*
X4795899Y132474D1*
X4776357Y122591D1*
X4737499D1*
X4718182Y132474D1*
X4698641Y151791D1*
X4688982Y171333D1*
Y200308D1*
X4737499D1*
X4626237Y258708D2*
Y122591D1*
Y219850D2*
X4597037Y249050D1*
X4577495Y258708D1*
X4548520D1*
X4528979Y249050D1*
X4519320Y219850D1*
Y122591D1*
X4340000Y326767D2*
Y122591D1*
Y229508D2*
X4359317Y249050D1*
X4378858Y258708D1*
X4408058D1*
X4427375Y249050D1*
X4446917Y229508D1*
X4456575Y200308D1*
Y180991D1*
X4446917Y151791D1*
X4427375Y132474D1*
X4408058Y122591D1*
X4378858D1*
X4359317Y132474D1*
X4340000Y151791D1*
X4377386Y1368708D2*
Y1271450D1*
X4367727Y1242474D1*
X4348186Y1232591D1*
X4318986D1*
X4299669Y1242474D1*
X4270469Y1271450D1*
Y1368708D2*
Y1232591D1*
X4091148Y1368708D2*
Y1232591D1*
Y1339508D2*
X4110465Y1359050D1*
X4130007Y1368708D1*
X4158982D1*
X4178524Y1359050D1*
X4197841Y1339508D1*
X4207724Y1310308D1*
Y1290991D1*
X4197841Y1261791D1*
X4178524Y1242474D1*
X4158982Y1232591D1*
X4130007D1*
X4110465Y1242474D1*
X4091148Y1261791D1*
X4028403Y1368708D2*
Y1232591D1*
Y1310308D2*
X4018520Y1339508D1*
X3999203Y1359050D1*
X3979662Y1368708D1*
X3950462D1*
X3858517Y1436767D2*
Y1271450D1*
X3848858Y1242474D1*
X3829317Y1232591D1*
X3810000D1*
X3887717Y1368708D2*
X3819658D1*
X4383623Y708708D2*
Y572591D1*
Y650308D2*
X4373740Y679508D1*
X4354423Y699050D1*
X4334882Y708708D1*
X4305682D1*
X4136020Y679508D2*
X4145678Y699050D1*
X4174878Y708708D1*
X4204078D1*
X4233278Y699050D1*
X4242936Y679508D1*
X4233278Y660191D1*
X4213736Y650308D1*
X4165220Y640650D1*
X4145678Y630991D1*
X4136020Y611450D1*
Y601791D1*
X4145678Y582474D1*
X4174878Y572591D1*
X4204078D1*
X4233278Y582474D1*
X4242936Y601791D1*
X3976016Y572591D2*
Y776542D1*
X4073274Y640650D1*
X3927499D1*
X3816237Y776542D2*
X3845212Y766883D1*
X3855095Y747567D1*
Y728025D1*
X3845212Y708708D1*
X3825895Y698825D1*
X3787037Y689167D1*
X3757837Y679508D1*
X3738520Y659967D1*
X3728862Y640650D1*
Y611450D1*
X3738520Y592133D1*
X3748179Y582250D1*
X3777379Y572591D1*
X3816237D1*
X3845212Y582250D1*
X3855095Y592133D1*
X3864754Y611450D1*
Y640650D1*
X3855095Y659967D1*
X3835554Y679508D1*
X3806579Y689167D1*
X3767720Y698825D1*
X3748179Y708708D1*
X3738520Y728025D1*
Y747567D1*
X3748179Y766883D1*
X3777379Y776542D1*
X3816237D1*
X3549541D2*
X3646575D1*
X3656233Y689167D1*
X3646575Y698825D1*
X3617375Y708708D1*
X3588400D1*
X3559200Y698825D1*
X3539658Y679508D1*
X3530000Y650308D1*
Y630991D1*
X3539658Y601791D1*
X3559200Y582250D1*
X3588400Y572591D1*
X3617375D1*
X3646575Y582250D1*
X3656233Y592133D1*
X3666117Y611450D1*
X4301724Y1166767D2*
Y1001450D1*
X4292065Y972474D1*
X4272524Y962591D1*
X4253207D1*
X4330924Y1098708D2*
X4262865D1*
X4161262Y1166767D2*
Y1001450D1*
X4151603Y972474D1*
X4132062Y962591D1*
X4112745D1*
X4190462Y1098708D2*
X4122403D1*
X4050000Y1166767D2*
Y962591D1*
X3241297Y786542D2*
X3270497Y776883D1*
X3290038Y747683D1*
X3299697Y699167D1*
Y669967D1*
X3290038Y621450D1*
X3270497Y592250D1*
X3241297Y582591D1*
X3221980D1*
X3192780Y592250D1*
X3173463Y621450D1*
X3163580Y669967D1*
Y699167D1*
X3173463Y747683D1*
X3192780Y776883D1*
X3221980Y786542D1*
X3241297D1*
X3173463Y747683D2*
X3290038Y621450D1*
X3100835Y684567D2*
X2988527D1*
X2925782Y747683D2*
X2906241Y757567D1*
X2877041Y786542D1*
Y582591D1*
X2697720Y786542D2*
X2794754D1*
X2804412Y699167D1*
X2794754Y708825D1*
X2765554Y718708D1*
X2736579D1*
X2707379Y708825D1*
X2687837Y689508D1*
X2678179Y660308D1*
Y640991D1*
X2687837Y611791D1*
X2707379Y592250D1*
X2736579Y582591D1*
X2765554D1*
X2794754Y592250D1*
X2804412Y602133D1*
X2814295Y621450D1*
X2615433Y786767D2*
X2537717Y582591D1*
X2460000Y786767D1*
X3283695Y1087683D2*
X3264153Y1097567D1*
X3234953Y1126542D1*
Y922591D1*
X3172208Y1024567D2*
X3059900D1*
X2938755Y1126542D2*
X2967955Y1116883D1*
X2987497Y1087683D1*
X2997155Y1039167D1*
Y1009967D1*
X2987497Y961450D1*
X2967955Y932250D1*
X2938755Y922591D1*
X2919438D1*
X2890238Y932250D1*
X2870922Y961450D1*
X2861038Y1009967D1*
Y1039167D1*
X2870922Y1087683D1*
X2890238Y1116883D1*
X2919438Y1126542D1*
X2938755D1*
X2870922Y1087683D2*
X2987497Y961450D1*
X2788635Y942133D2*
X2798293Y932250D1*
X2788635Y922591D1*
X2778752Y932250D1*
X2788635Y942133D1*
X2716007Y1087683D2*
X2696465Y1097567D1*
X2667265Y1126542D1*
Y922591D1*
X2487945Y1126542D2*
X2584979D1*
X2594637Y1039167D1*
X2584979Y1048825D1*
X2555779Y1058708D1*
X2526803D1*
X2497603Y1048825D1*
X2478062Y1029508D1*
X2468403Y1000308D1*
Y980991D1*
X2478062Y951791D1*
X2497603Y932250D1*
X2526803Y922591D1*
X2555779D1*
X2584979Y932250D1*
X2594637Y942133D1*
X2604520Y961450D1*
X2250000Y922591D2*
X2327941Y1126767D1*
X2405658Y922591D1*
X2376458Y990650D2*
X2279200D1*
M02*
