M48
METRIC,0000.00
T01C0.3
T02C0.7
T03C0.9
T04C1.1
T05C2.3
%
T01
X+002200Y+001220
X+002430Y+001220
X+002390Y+000840
X+002570Y+000840
X+002660Y+000840
X+002940Y+000840
X+003030Y+000840
X+003350Y+000900
X+003670Y+001070
X+003860Y+001170
X+003960Y+001170
X+004090Y+001490
X+004240Y+000740
X+004570Y+000740
X+004570Y+000550
X+004390Y+000180
X+004290Y+000230
X+004070Y+000270
X+004060Y+000160
X+003550Y+000250
X+003550Y+000420
X+003550Y+000510
X+003700Y+000580
X+003810Y+000720
X+003130Y+000470
X+002450Y+000460
X+002330Y+000570
X+002140Y+000580
X+002050Y+000580
X+001950Y+000580
X+001860Y+000580
X+001770Y+000580
X+001680Y+000580
X+001520Y+000670
X+001810Y+000780
X+001520Y+000990
X+001510Y+001120
X+001030Y+001120
X+000810Y+001420
X+000180Y+001240
X+000140Y+000500
X+000580Y+000310
X+001000Y+000740
X+001450Y+000120
X+002000Y+000310
X+002070Y+001420
X+001840Y+001660
X+002780Y+001580
X+002780Y+001430
X+004800Y+000910
T02
X+001672Y+001600
X+001545Y+001600
X+001418Y+001600
X+001291Y+001600
X+001164Y+001600
T03
X+000520Y+001240
X+000520Y+000990
X+000520Y+000790
X+000520Y+000540
T04
X+004980Y+001600
X+004980Y+001346
X+004980Y+001092
X+004980Y+000838
X+004980Y+000584
X+004980Y+000330
X+000310Y+000665
X+000310Y+001115
T05
X+000310Y+001475
X+000310Y+000305
T00
M30
