G04 DipTrace 3.0.0.2*
G04 TopAssy.gbr*
%MOMM*%
G04 #@! TF.FileFunction,Drawing,Top*
G04 #@! TF.Part,Single*
%ADD10C,0.25*%
%ADD96C,0.07843*%
%ADD97C,0.15686*%
%FSLAX35Y35*%
G04*
G71*
G90*
G75*
G01*
G04 TopAssy*
%LPD*%
X5131992Y1801000D2*
D10*
Y129000D1*
X-1470000Y140000D2*
X9972D1*
X-1470000Y1640000D2*
X9972D1*
Y140000D2*
Y1640000D1*
X-1470000Y140000D2*
Y1640000D1*
X5229270Y1217563D2*
D96*
X5178226D1*
Y1195663D1*
X5180697Y1188363D1*
X5183111Y1185948D1*
X5187941Y1183534D1*
X5195241D1*
X5200126Y1185948D1*
X5202541Y1188363D1*
X5204955Y1195663D1*
X5207426Y1188363D1*
X5209841Y1185948D1*
X5214670Y1183534D1*
X5219555D1*
X5224384Y1185948D1*
X5226855Y1188363D1*
X5229270Y1195663D1*
Y1217563D1*
X5204955D2*
Y1195663D1*
X5229270Y1153248D2*
X5226855Y1158133D1*
X5221970Y1162962D1*
X5217141Y1165433D1*
X5209841Y1167848D1*
X5197655D1*
X5190411Y1165433D1*
X5185526Y1162962D1*
X5180697Y1158133D1*
X5178226Y1153248D1*
Y1143533D1*
X5180697Y1138704D1*
X5185526Y1133818D1*
X5190411Y1131404D1*
X5197655Y1128989D1*
X5209841D1*
X5217141Y1131404D1*
X5221970Y1133818D1*
X5226855Y1138704D1*
X5229270Y1143533D1*
Y1153248D1*
X5178226Y1074388D2*
X5229270Y1093874D1*
X5178226Y1113303D1*
X5195241Y1106003D2*
Y1081688D1*
X5204955Y1058702D2*
Y1036858D1*
X5207426Y1029558D1*
X5209841Y1027087D1*
X5214670Y1024673D1*
X5219555D1*
X5224384Y1027087D1*
X5226855Y1029558D1*
X5229270Y1036858D1*
Y1058702D1*
X5178226D1*
X5204955Y1041687D2*
X5178226Y1024673D1*
X5229270Y1008987D2*
X5178226D1*
Y991972D1*
X5180697Y984672D1*
X5185526Y979787D1*
X5190411Y977372D1*
X5197655Y974957D1*
X5209841D1*
X5217141Y977372D1*
X5221970Y979787D1*
X5226855Y984672D1*
X5229270Y991972D1*
Y1008987D1*
Y878334D2*
Y909892D1*
X5178226Y909893D1*
Y878334D1*
X5204955Y909893D2*
Y890463D1*
X5229270Y862648D2*
X5178226D1*
Y845633D1*
X5180697Y838333D1*
X5185526Y833448D1*
X5190411Y831033D1*
X5197655Y828619D1*
X5209841D1*
X5217141Y831033D1*
X5221970Y833448D1*
X5226855Y838333D1*
X5229270Y845633D1*
Y862648D1*
X5217141Y776488D2*
X5221970Y778903D1*
X5226855Y783788D1*
X5229270Y788618D1*
Y798332D1*
X5226855Y803218D1*
X5221970Y808047D1*
X5217141Y810518D1*
X5209841Y812932D1*
X5197655D1*
X5190411Y810518D1*
X5185526Y808047D1*
X5180697Y803218D1*
X5178226Y798332D1*
Y788618D1*
X5180697Y783788D1*
X5185526Y778903D1*
X5190411Y776488D1*
X5197655D1*
Y788618D1*
X5229270Y729244D2*
Y760802D1*
X5178226D1*
Y729244D1*
X5204955Y760802D2*
Y741373D1*
X165464Y1322257D2*
D97*
X63376D1*
Y1278457D1*
X68318Y1263857D1*
X73147Y1259028D1*
X82805Y1254198D1*
X97405D1*
X107176Y1259027D1*
X112005Y1263857D1*
X116835Y1278457D1*
X121776Y1263857D1*
X126605Y1259027D1*
X136264Y1254198D1*
X146035D1*
X155693Y1259027D1*
X160635Y1263857D1*
X165464Y1278457D1*
Y1322257D1*
X116835D2*
Y1278457D1*
X131435Y1198567D2*
X126605Y1208226D1*
X116835Y1217996D1*
X102235Y1222826D1*
X92576D1*
X77976Y1217997D1*
X68318Y1208226D1*
X63376Y1198567D1*
Y1183967D1*
X68318Y1174197D1*
X77976Y1164538D1*
X92576Y1159597D1*
X102235D1*
X116835Y1164538D1*
X126605Y1174197D1*
X131435Y1183967D1*
Y1198567D1*
Y1069936D2*
X63376D1*
X116835D2*
X126605Y1079595D1*
X131435Y1089366D1*
Y1103853D1*
X126605Y1113624D1*
X116835Y1123282D1*
X102235Y1128224D1*
X92576D1*
X77976Y1123283D1*
X68318Y1113624D1*
X63376Y1103853D1*
Y1089366D1*
X68318Y1079595D1*
X77976Y1069936D1*
X131435Y1038564D2*
X63376D1*
X102235D2*
X116835Y1033622D1*
X126605Y1023964D1*
X131435Y1014193D1*
Y999593D1*
X165464Y909933D2*
X63376D1*
X116835D2*
X126605Y919591D1*
X131435Y929362D1*
Y943962D1*
X126605Y953620D1*
X116835Y963391D1*
X102235Y968220D1*
X92576Y968221D1*
X77976Y963391D1*
X68318Y953621D1*
X63376Y943962D1*
Y929362D1*
X68318Y919591D1*
X77976Y909933D1*
X165464Y716686D2*
Y779803D1*
X63376D1*
Y716686D1*
X116835Y779803D2*
Y740945D1*
X165464Y627026D2*
X63376D1*
X116835D2*
X126605Y636684D1*
X131435Y646455D1*
Y661055D1*
X126605Y670714D1*
X116835Y680484D1*
X102235Y685314D1*
X92576D1*
X77976Y680484D1*
X68318Y670714D1*
X63376Y661055D1*
Y646455D1*
X68318Y636684D1*
X77976Y627026D1*
X126605Y537366D2*
X48776D1*
X34289Y542195D1*
X29347Y547024D1*
X24518Y556795D1*
Y571395D1*
X29347Y581053D1*
X112005Y537366D2*
X121664Y547024D1*
X126605Y556795D1*
Y571395D1*
X121664Y581053D1*
X112005Y590824D1*
X97405Y595653D1*
X87635D1*
X73147Y590824D1*
X63376Y581053D1*
X58547Y571395D1*
Y556795D1*
X63376Y547024D1*
X73147Y537366D1*
X102235Y505993D2*
Y447705D1*
X112005D1*
X121776Y452535D1*
X126605Y457364D1*
X131435Y467135D1*
Y481735D1*
X126605Y491393D1*
X116835Y501164D1*
X102235Y505993D1*
X92576D1*
X77976Y501164D1*
X68318Y491393D1*
X63376Y481735D1*
Y467135D1*
X68318Y457364D1*
X77976Y447705D1*
M02*
