G04 DipTrace 3.0.0.2*
G04 TopMask.gbr*
%MOMM*%
G04 #@! TF.FileFunction,Soldermask,Top*
G04 #@! TF.Part,Single*
%ADD43C,3.0*%
%ADD48C,1.1*%
%ADD54R,2.2X0.8*%
%ADD56R,1.5X1.7*%
%ADD58R,0.85X1.25*%
%ADD62R,6.2X2.2*%
%ADD64C,3.5*%
%ADD66R,1.8X1.8*%
%ADD67R,1.4X1.4*%
%ADD68C,1.8*%
%ADD70O,1.2X1.5*%
%ADD72R,1.2X1.5*%
%ADD74C,1.9*%
%ADD76R,1.9X1.9*%
%ADD78R,1.25X0.85*%
%ADD81R,2.4X1.75*%
%ADD83R,2.5X2.4*%
%ADD85R,1.3X1.2*%
%ADD87R,1.2X1.3*%
%ADD89R,2.0X1.8*%
%ADD91R,3.35X1.8*%
%FSLAX35Y35*%
G04*
G71*
G90*
G75*
G01*
G04 TopMask*
%LPD*%
D91*
X4335000Y1395000D3*
X3845000D3*
D89*
X3320000Y1650000D3*
Y1370000D3*
X3550000Y1650000D3*
Y1370000D3*
X1830000Y430000D3*
Y150000D3*
D87*
X1950000Y710000D3*
Y880000D3*
D85*
X4350000Y980000D3*
X4180000D3*
D87*
X1680000Y710000D3*
Y880000D3*
D85*
X1045000Y345000D3*
X875000D3*
D87*
X4170000Y270000D3*
Y440000D3*
D83*
X3010000Y1500000D3*
X2560000D3*
D81*
X2600000Y300000D3*
X3010000D3*
D67*
X1030000Y130000D3*
X820000D3*
D78*
X4480000Y550000D3*
Y740000D3*
X4250000Y645000D3*
D76*
X4980000Y1600000D3*
D74*
Y1346000D3*
Y1092000D3*
Y838000D3*
Y584000D3*
Y330000D3*
D72*
X1672000Y1600000D3*
D70*
X1545000D3*
X1418000D3*
X1291000D3*
X1164000D3*
D68*
X520000Y1240000D3*
Y990000D3*
Y790000D3*
D66*
Y540000D3*
D64*
X310000Y1475000D3*
Y305000D3*
D48*
Y1115000D3*
Y665000D3*
D62*
X2810000Y650000D3*
Y1080000D3*
D43*
X2200000Y1600000D3*
X200000Y890000D3*
D58*
X2330000Y460000D3*
X2140000D3*
X2235000Y230000D3*
D78*
X2180000Y1120000D3*
Y930000D3*
X2410000Y1025000D3*
D85*
X3350000Y1020000D3*
X3520000D3*
D87*
X1965000Y1185000D3*
Y1355000D3*
D85*
X3730000Y820000D3*
X3900000D3*
X2330000Y690000D3*
X2160000D3*
D87*
X1965000Y1505000D3*
Y1675000D3*
X1680000Y1200000D3*
Y1370000D3*
X1310000Y290000D3*
Y120000D3*
D56*
X4710000Y140000D3*
X4520000D3*
D87*
X1590000Y120000D3*
Y290000D3*
D85*
X3345000Y815000D3*
X3515000D3*
X975000Y1685000D3*
X805000D3*
D54*
X1342273Y542543D3*
Y669543D3*
Y796543D3*
Y923543D3*
Y1050543D3*
Y1177543D3*
Y1304543D3*
X802273D3*
Y1177543D3*
Y1050543D3*
Y923543D3*
Y796543D3*
Y669543D3*
Y542543D3*
X3899500Y249500D3*
Y376500D3*
Y503500D3*
Y630500D3*
X3359500D3*
Y503500D3*
Y376500D3*
Y249500D3*
M02*
