G04 DipTrace 3.0.0.2*
G04 TopPaste.gbr*
%MOMM*%
G04 #@! TF.FileFunction,Paste,Top*
G04 #@! TF.Part,Single*
%ADD55R,1.8X0.4*%
%ADD57R,1.1X1.3*%
%ADD59R,0.45X0.85*%
%ADD63R,5.8X1.8*%
%ADD79R,0.85X0.45*%
%ADD80R,1.0X1.0*%
%ADD82R,2.0X1.35*%
%ADD84R,2.1X2.0*%
%ADD86R,0.9X0.8*%
%ADD88R,0.8X0.9*%
%ADD90R,1.6X1.4*%
%ADD92R,2.95X1.4*%
%FSLAX35Y35*%
G04*
G71*
G90*
G75*
G01*
G04 TopPaste*
%LPD*%
D92*
X4335000Y1395000D3*
X3845000D3*
D90*
X3320000Y1650000D3*
Y1370000D3*
X3550000Y1650000D3*
Y1370000D3*
X1830000Y430000D3*
Y150000D3*
D88*
X1950000Y710000D3*
Y880000D3*
D86*
X4350000Y980000D3*
X4180000D3*
D88*
X1680000Y710000D3*
Y880000D3*
D86*
X1045000Y345000D3*
X875000D3*
D88*
X4170000Y270000D3*
Y440000D3*
D84*
X3010000Y1500000D3*
X2560000D3*
D82*
X2600000Y300000D3*
X3010000D3*
D80*
X1030000Y130000D3*
X820000D3*
D79*
X4480000Y550000D3*
Y740000D3*
X4250000Y645000D3*
D63*
X2810000Y650000D3*
Y1080000D3*
D59*
X2330000Y460000D3*
X2140000D3*
X2235000Y230000D3*
D79*
X2180000Y1120000D3*
Y930000D3*
X2410000Y1025000D3*
D86*
X3350000Y1020000D3*
X3520000D3*
D88*
X1965000Y1185000D3*
Y1355000D3*
D86*
X3730000Y820000D3*
X3900000D3*
X2330000Y690000D3*
X2160000D3*
D88*
X1965000Y1505000D3*
Y1675000D3*
X1680000Y1200000D3*
Y1370000D3*
X1310000Y290000D3*
Y120000D3*
D57*
X4710000Y140000D3*
X4520000D3*
D88*
X1590000Y120000D3*
Y290000D3*
D86*
X3345000Y815000D3*
X3515000D3*
X975000Y1685000D3*
X805000D3*
D55*
X1342273Y542543D3*
Y669543D3*
Y796543D3*
Y923543D3*
Y1050543D3*
Y1177543D3*
Y1304543D3*
X802273D3*
Y1177543D3*
Y1050543D3*
Y923543D3*
Y796543D3*
Y669543D3*
Y542543D3*
X3899500Y249500D3*
Y376500D3*
Y503500D3*
Y630500D3*
X3359500D3*
Y503500D3*
Y376500D3*
Y249500D3*
M02*
