G04 DipTrace 3.0.0.2*
G04 TopSilk.gbr*
%MOMM*%
G04 #@! TF.FileFunction,Legend,Top*
G04 #@! TF.Part,Single*
%ADD10C,0.25*%
%ADD22O,0.5996X0.59994*%
%ADD27O,0.50008X0.50028*%
%ADD29C,0.49984*%
%ADD32O,0.39172X0.39127*%
%ADD44O,0.39127X0.39172*%
%ADD93C,0.19608*%
%ADD94C,0.31373*%
%ADD95C,0.39216*%
%FSLAX35Y35*%
G04*
G71*
G90*
G75*
G01*
G04 TopSilk*
%LPD*%
X3760044Y1065000D2*
D10*
X3759962Y1269996D1*
X3760044Y1065000D2*
X4309968D1*
X4419936Y1175022D2*
X4309968Y1065000D1*
X4419936Y1175022D2*
Y1269996D1*
X3759962Y1520004D2*
X3760044Y1725000D1*
X4309968D1*
X4419936Y1614978D2*
X4309968Y1725000D1*
X4419936Y1520004D2*
Y1614978D1*
D22*
X4480020Y1250031D3*
X3240080Y1521000D2*
D10*
X3399920D1*
X3240080Y1539920D2*
X3399920D1*
X3240080D2*
Y1480080D1*
X3399920Y1539920D2*
Y1480080D1*
X3470080Y1521000D2*
X3629920D1*
X3470080Y1539920D2*
X3629920D1*
X3470080D2*
Y1480080D1*
X3629920Y1539920D2*
Y1480080D1*
X1750080Y301000D2*
X1909920D1*
X1750080Y319920D2*
X1909920D1*
X1750080D2*
Y260080D1*
X1909920Y319920D2*
Y260080D1*
X2514996Y1653017D2*
Y1681000D1*
Y1346983D2*
Y1319000D1*
X3054976Y1653017D2*
Y1681000D1*
X2514996D1*
X3054976Y1346983D2*
Y1319000D1*
D27*
X3179996Y1500000D3*
X3054976Y1319000D2*
D10*
X2514996D1*
D29*
X2434992Y300000D3*
X3060005Y166500D2*
D10*
Y180010D1*
Y433500D2*
Y419990D1*
X2550012Y166500D2*
X3060005D1*
X2550012D2*
Y180010D1*
Y433500D2*
X3060005D1*
X2550012D2*
Y419990D1*
X715000Y180004D2*
Y79996D1*
D32*
X4517361Y471644D3*
X4390000Y495014D2*
D10*
Y795000D1*
X4340000D1*
Y495014D1*
X4390000D1*
X5107004Y1726930D2*
X4853000D1*
Y203070D1*
X5107004D1*
Y1726930D1*
X1735500Y1493000D2*
X1100500D1*
X1735500Y1707000D2*
X1100500D1*
X389876Y1640000D2*
X650000D1*
Y140000D1*
X389876D1*
X239992D2*
X50040D1*
X230028Y1640000D2*
X40076D1*
X2510000Y790030D2*
Y939970D1*
X3110000Y790030D2*
Y939970D1*
D44*
X2408356Y497361D3*
X2384986Y370000D2*
D10*
X2085000D1*
Y320000D1*
X2384986D1*
Y370000D1*
D32*
X2142639Y1198356D3*
X2270000Y1174986D2*
D10*
Y875000D1*
X2320000D1*
Y1174986D1*
X2270000D1*
X1202291Y493530D2*
Y1353557D1*
X942255Y493530D2*
Y1353557D1*
X1202291D2*
X942255D1*
X1202291Y493530D2*
X1122297D1*
X1022249D2*
X942255D1*
X1122297D2*
G03X1022249Y493530I-50024J30D01*
G01*
X3759518Y189995D2*
Y690005D1*
X3499482Y189995D2*
Y690005D1*
X3759518D2*
X3499482D1*
X3679524Y189995D2*
X3759518D1*
X3579476D2*
X3499482D1*
X3679524D2*
G03X3579476Y189995I-50024J-23D01*
G01*
X4079465Y1640664D2*
D93*
X4073429Y1652737D1*
X4061215Y1664950D1*
X4049142Y1670987D1*
X4024856D1*
X4012642Y1664950D1*
X4000569Y1652737D1*
X3994392Y1640664D1*
X3988356Y1622414D1*
Y1591950D1*
X3994392Y1573840D1*
X4000569Y1561627D1*
X4012642Y1549554D1*
X4024856Y1543377D1*
X4049142D1*
X4061215Y1549554D1*
X4073429Y1561627D1*
X4079465Y1573840D1*
X4118681Y1646560D2*
X4130894Y1652737D1*
X4149144Y1670846D1*
Y1543377D1*
X3342654Y1220390D2*
X3336617Y1232463D1*
X3324404Y1244677D1*
X3312331Y1250713D1*
X3288044D1*
X3275831Y1244677D1*
X3263758Y1232463D1*
X3257581Y1220390D1*
X3251544Y1202140D1*
Y1171677D1*
X3257581Y1153567D1*
X3263758Y1141354D1*
X3275831Y1129281D1*
X3288044Y1123104D1*
X3312331D1*
X3324404Y1129281D1*
X3336617Y1141354D1*
X3342654Y1153567D1*
X3388046Y1220250D2*
Y1226286D1*
X3394083Y1238500D1*
X3400119Y1244536D1*
X3412333Y1250573D1*
X3436619D1*
X3448693Y1244536D1*
X3454729Y1238500D1*
X3460906Y1226286D1*
Y1214213D1*
X3454729Y1202000D1*
X3442656Y1183890D1*
X3381869Y1123104D1*
X3466943D1*
X3598127Y1220054D2*
X3592091Y1232127D1*
X3579877Y1244340D1*
X3567804Y1250377D1*
X3543517D1*
X3531304Y1244340D1*
X3519231Y1232127D1*
X3513054Y1220054D1*
X3507017Y1201804D1*
Y1171340D1*
X3513054Y1153230D1*
X3519231Y1141017D1*
X3531304Y1128944D1*
X3543517Y1122767D1*
X3567804D1*
X3579877Y1128944D1*
X3592091Y1141017D1*
X3598127Y1153230D1*
X3649556Y1250236D2*
X3716239D1*
X3679879Y1201663D1*
X3698129D1*
X3710202Y1195627D1*
X3716239Y1189590D1*
X3722416Y1171340D1*
Y1159267D1*
X3716239Y1141017D1*
X3704166Y1128804D1*
X3685916Y1122767D1*
X3667666D1*
X3649556Y1128804D1*
X3643520Y1134980D1*
X3637343Y1147054D1*
X1970017Y344186D2*
X1957944Y338149D1*
X1945730Y325936D1*
X1939693Y313863D1*
Y289576D1*
X1945730Y277363D1*
X1957943Y265290D1*
X1970016Y259113D1*
X1988266Y253076D1*
X2018730D1*
X2036840Y259113D1*
X2049053Y265290D1*
X2061126Y277363D1*
X2067303Y289576D1*
Y313863D1*
X2061126Y325936D1*
X2049053Y338149D1*
X2036840Y344186D1*
X2067303Y444188D2*
X1939834D1*
X2024767Y383401D1*
Y474511D1*
X1783023Y822381D2*
X1770950Y816344D1*
X1758737Y804131D1*
X1752700Y792058D1*
Y767771D1*
X1758737Y755558D1*
X1770950Y743485D1*
X1783023Y737308D1*
X1801273Y731271D1*
X1831737D1*
X1849846Y737308D1*
X1862060Y743485D1*
X1874133Y755558D1*
X1880310Y767771D1*
Y792057D1*
X1874133Y804131D1*
X1862060Y816344D1*
X1849846Y822381D1*
X1752841Y934456D2*
Y873810D1*
X1807450Y867773D1*
X1801414Y873810D1*
X1795237Y892060D1*
Y910169D1*
X1801414Y928419D1*
X1813487Y940633D1*
X1831737Y946669D1*
X1843810D1*
X1862060Y940633D1*
X1874273Y928419D1*
X1880310Y910169D1*
Y892060D1*
X1874273Y873810D1*
X1868096Y867773D1*
X1856023Y861596D1*
X4008750Y917036D2*
X3996677Y910999D1*
X3984463Y898786D1*
X3978427Y886713D1*
Y862426D1*
X3984463Y850213D1*
X3996677Y838140D1*
X4008750Y831963D1*
X4027000Y825926D1*
X4057463D1*
X4075573Y831963D1*
X4087786Y838140D1*
X4099860Y850213D1*
X4106036Y862426D1*
Y886713D1*
X4099860Y898786D1*
X4087786Y910999D1*
X4075573Y917036D1*
X3996677Y1029111D2*
X3984604Y1023074D1*
X3978567Y1004824D1*
Y992751D1*
X3984604Y974501D1*
X4002854Y962288D1*
X4033177Y956251D1*
X4063500D1*
X4087786Y962288D1*
X4100000Y974501D1*
X4106036Y992751D1*
Y998788D1*
X4100000Y1016897D1*
X4087786Y1029111D1*
X4069536Y1035147D1*
X4063500D1*
X4045250Y1029111D1*
X4033177Y1016897D1*
X4027140Y998788D1*
Y992751D1*
X4033177Y974501D1*
X4045250Y962288D1*
X4063500Y956251D1*
X1508370Y809724D2*
X1496297Y803687D1*
X1484083Y791474D1*
X1478047Y779401D1*
Y755114D1*
X1484083Y742901D1*
X1496297Y730828D1*
X1508370Y724651D1*
X1526620Y718614D1*
X1557083D1*
X1575193Y724651D1*
X1587406Y730828D1*
X1599480Y742901D1*
X1605656Y755114D1*
Y779401D1*
X1599480Y791474D1*
X1587406Y803687D1*
X1575193Y809724D1*
X1605656Y873226D2*
X1478187Y934013D1*
Y848940D1*
X709323Y335984D2*
X697250Y329948D1*
X685037Y317734D1*
X679000Y305661D1*
Y281375D1*
X685037Y269161D1*
X697250Y257088D1*
X709323Y250911D1*
X727573Y244875D1*
X758037D1*
X776146Y250911D1*
X788360Y257088D1*
X800433Y269161D1*
X806610Y281375D1*
Y305661D1*
X800433Y317734D1*
X788360Y329948D1*
X776146Y335984D1*
X679141Y405523D2*
X685177Y387413D1*
X697250Y381236D1*
X709464D1*
X721537Y387413D1*
X727714Y399486D1*
X733750Y423773D1*
X739787Y442023D1*
X752000Y454096D1*
X764073Y460132D1*
X782323D1*
X794396Y454096D1*
X800573Y448059D1*
X806610Y429809D1*
Y405523D1*
X800573Y387413D1*
X794396Y381236D1*
X782323Y375200D1*
X764073D1*
X752000Y381236D1*
X739787Y393450D1*
X733750Y411559D1*
X727714Y435846D1*
X721537Y448059D1*
X709464Y454096D1*
X697250D1*
X685177Y448059D1*
X679141Y429809D1*
Y405523D1*
X4054337Y601429D2*
X4042264Y595392D1*
X4030050Y583179D1*
X4024013Y571106D1*
Y546819D1*
X4030050Y534606D1*
X4042263Y522533D1*
X4054336Y516356D1*
X4072586Y510319D1*
X4103050D1*
X4121160Y516356D1*
X4133373Y522533D1*
X4145446Y534606D1*
X4151623Y546819D1*
Y571106D1*
X4145446Y583179D1*
X4133373Y595392D1*
X4121160Y601429D1*
X4066550Y719681D2*
X4084800Y713504D1*
X4097014Y701431D1*
X4103050Y683181D1*
Y677144D1*
X4097014Y658894D1*
X4084800Y646821D1*
X4066550Y640645D1*
X4060514D1*
X4042264Y646821D1*
X4030190Y658895D1*
X4024154Y677145D1*
Y683181D1*
X4030190Y701431D1*
X4042264Y713504D1*
X4066550Y719681D1*
X4097014D1*
X4127337Y713504D1*
X4145587Y701431D1*
X4151623Y683181D1*
Y671108D1*
X4145587Y652858D1*
X4133373Y646821D1*
X2266747Y1433173D2*
Y1305564D1*
X2309284D1*
X2327534Y1311741D1*
X2339747Y1323814D1*
X2345784Y1336027D1*
X2351820Y1354137D1*
Y1384600D1*
X2345784Y1402850D1*
X2339747Y1414923D1*
X2327534Y1427137D1*
X2309284Y1433173D1*
X2266747D1*
X2391036Y1408746D2*
X2403249Y1414923D1*
X2421499Y1433033D1*
Y1305564D1*
X2296819Y201490D2*
Y73880D1*
X2339356D1*
X2357606Y80057D1*
X2369819Y92130D1*
X2375856Y104344D1*
X2381892Y122453D1*
Y152917D1*
X2375856Y171167D1*
X2369819Y183240D1*
X2357606Y195453D1*
X2339356Y201490D1*
X2296819D1*
X2427285Y171026D2*
Y177063D1*
X2433321Y189276D1*
X2439358Y195313D1*
X2451571Y201350D1*
X2475858D1*
X2487931Y195313D1*
X2493967Y189276D1*
X2500144Y177063D1*
Y164990D1*
X2493967Y152776D1*
X2481894Y134667D1*
X2421108Y73880D1*
X2506181D1*
X1113387Y75913D2*
X1240996D1*
X1240997Y118449D1*
X1234820Y136699D1*
X1222747Y148913D1*
X1210533Y154949D1*
X1192423Y160986D1*
X1161960D1*
X1143710Y154949D1*
X1131637Y148913D1*
X1119423Y136699D1*
X1113387Y118449D1*
Y75913D1*
X1113527Y212415D2*
Y279097D1*
X1162100Y242738D1*
Y260988D1*
X1168137Y273061D1*
X1174173Y279097D1*
X1192423Y285274D1*
X1204496D1*
X1222746Y279097D1*
X1234960Y267024D1*
X1240996Y248774D1*
Y230524D1*
X1234960Y212415D1*
X1228783Y206378D1*
X1216710Y200201D1*
X4172973Y695564D2*
X4300583D1*
Y738101D1*
X4294406Y756351D1*
X4282333Y768564D1*
X4270120Y774601D1*
X4252010Y780637D1*
X4221547D1*
X4203297Y774601D1*
X4191224Y768564D1*
X4179010Y756351D1*
X4172973Y738101D1*
Y695564D1*
X4300583Y880639D2*
X4173114Y880640D1*
X4258047Y819853D1*
Y910963D1*
X4927513Y94554D2*
X5024660D1*
X5042910Y88517D1*
X5048946Y82340D1*
X5055123Y70267D1*
Y58054D1*
X5048946Y45981D1*
X5042910Y39944D1*
X5024660Y33767D1*
X5012586D1*
X4951940Y133770D2*
X4945764Y145983D1*
X4927654Y164233D1*
X5055123D1*
X949870Y1473196D2*
X1047016D1*
X1065266Y1467159D1*
X1071303Y1460982D1*
X1077480Y1448909D1*
Y1436696D1*
X1071303Y1424623D1*
X1065266Y1418586D1*
X1047016Y1412409D1*
X1034943D1*
X980334Y1518588D2*
X974297D1*
X962084Y1524625D1*
X956047Y1530661D1*
X950011Y1542875D1*
Y1567161D1*
X956047Y1579234D1*
X962084Y1585271D1*
X974297Y1591448D1*
X986370D1*
X998584Y1585271D1*
X1016693Y1573198D1*
X1077480Y1512411D1*
Y1597484D1*
X494013Y1478249D2*
X591160D1*
X609410Y1472213D1*
X615446Y1466036D1*
X621623Y1453963D1*
Y1441749D1*
X615446Y1429676D1*
X609410Y1423640D1*
X591160Y1417463D1*
X579086D1*
X494154Y1529678D2*
Y1596361D1*
X542727Y1560001D1*
Y1578251D1*
X548764Y1590324D1*
X554800Y1596361D1*
X573050Y1602538D1*
X585123D1*
X603373Y1596361D1*
X615587Y1584288D1*
X621623Y1566038D1*
Y1547788D1*
X615587Y1529678D1*
X609410Y1523642D1*
X597337Y1517465D1*
X2738731Y925987D2*
Y798377D1*
X2811590D1*
X2850806Y901560D2*
X2863019Y907737D1*
X2881269Y925846D1*
Y798377D1*
X2026187Y210173D2*
X2014114Y204277D1*
X2001901Y192064D1*
X1995864Y179850D1*
X1989687Y161600D1*
Y131277D1*
X1995864Y113027D1*
X2001901Y100954D1*
X2014114Y88741D1*
X2026187Y82704D1*
X2050474D1*
X2062687Y88741D1*
X2074760Y100954D1*
X2080797Y113027D1*
X2086974Y131277D1*
Y161600D1*
X2080797Y179850D1*
X2074760Y192064D1*
X2062687Y204277D1*
X2050474Y210173D1*
X2026187D1*
X2044437Y106991D2*
X2080797Y70491D1*
X2126189Y185746D2*
X2138403Y191923D1*
X2156653Y210033D1*
Y82564D1*
X1917699Y1106227D2*
X1905626Y1100330D1*
X1893412Y1088117D1*
X1887376Y1075904D1*
X1881199Y1057654D1*
Y1027330D1*
X1887376Y1009080D1*
X1893412Y997007D1*
X1905626Y984794D1*
X1917699Y978757D1*
X1941986D1*
X1954199Y984794D1*
X1966272Y997007D1*
X1972309Y1009080D1*
X1978486Y1027330D1*
Y1057654D1*
X1972309Y1075904D1*
X1966272Y1088117D1*
X1954199Y1100330D1*
X1941986Y1106227D1*
X1917699D1*
X1935949Y1003044D2*
X1972309Y966544D1*
X2023878Y1075763D2*
Y1081800D1*
X2029915Y1094013D1*
X2035951Y1100050D1*
X2048165Y1106086D1*
X2072451D1*
X2084524Y1100050D1*
X2090561Y1094013D1*
X2096738Y1081800D1*
Y1069727D1*
X2090561Y1057513D1*
X2078488Y1039404D1*
X2017701Y978617D1*
X2102774D1*
X3199800Y1012624D2*
Y1067234D1*
X3193623Y1085484D1*
X3187587Y1091661D1*
X3175514Y1097697D1*
X3163300D1*
X3151227Y1091661D1*
X3145050Y1085484D1*
X3139013Y1067234D1*
Y1012624D1*
X3266623D1*
X3199800Y1055161D2*
X3266623Y1097697D1*
X3163440Y1136913D2*
X3157264Y1149126D1*
X3139154Y1167376D1*
X3266623D1*
X1825157Y1209799D2*
Y1264409D1*
X1818980Y1282659D1*
X1812943Y1288836D1*
X1800870Y1294872D1*
X1788657D1*
X1776584Y1288836D1*
X1770407Y1282659D1*
X1764370Y1264409D1*
Y1209799D1*
X1891980D1*
X1825157Y1252336D2*
X1891980Y1294872D1*
X1794834Y1340265D2*
X1788797D1*
X1776584Y1346302D1*
X1770547Y1352338D1*
X1764511Y1364551D1*
Y1388838D1*
X1770547Y1400911D1*
X1776584Y1406948D1*
X1788797Y1413125D1*
X1800870Y1413124D1*
X1813084Y1406948D1*
X1831193Y1394874D1*
X1891980Y1334088D1*
Y1419161D1*
X3710319Y965200D2*
X3764929D1*
X3783179Y971377D1*
X3789356Y977414D1*
X3795392Y989487D1*
Y1001700D1*
X3789356Y1013773D1*
X3783179Y1019950D1*
X3764929Y1025987D1*
X3710319D1*
Y898377D1*
X3752856Y965200D2*
X3795392Y898377D1*
X3846821Y1025846D2*
X3913504D1*
X3877144Y977273D1*
X3895394D1*
X3907467Y971237D1*
X3913504Y965200D1*
X3919681Y946950D1*
Y934877D1*
X3913504Y916627D1*
X3901431Y904414D1*
X3883181Y898377D1*
X3864931D1*
X3846821Y904414D1*
X3840785Y910590D1*
X3834608Y922664D1*
X2047301Y825200D2*
X2101910D1*
X2120160Y831377D1*
X2126337Y837414D1*
X2132374Y849487D1*
Y861700D1*
X2126337Y873773D1*
X2120160Y879950D1*
X2101910Y885987D1*
X2047301D1*
Y758377D1*
X2089837Y825200D2*
X2132374Y758377D1*
X2232376D2*
Y885846D1*
X2171590Y800914D1*
X2262699D1*
X1827810Y1495273D2*
Y1549882D1*
X1821633Y1568132D1*
X1815597Y1574309D1*
X1803524Y1580346D1*
X1791310D1*
X1779237Y1574309D1*
X1773060Y1568132D1*
X1767023Y1549882D1*
Y1495273D1*
X1894633D1*
X1827810Y1537809D2*
X1894633Y1580346D1*
X1767164Y1692421D2*
Y1631775D1*
X1821774Y1625738D1*
X1815737Y1631775D1*
X1809560Y1650025D1*
Y1668134D1*
X1815737Y1686384D1*
X1827810Y1698598D1*
X1846060Y1704634D1*
X1858133D1*
X1876383Y1698598D1*
X1888597Y1686384D1*
X1894633Y1668134D1*
Y1650025D1*
X1888597Y1631775D1*
X1882420Y1625738D1*
X1870347Y1619561D1*
X1544800Y1203408D2*
Y1258017D1*
X1538623Y1276267D1*
X1532587Y1282444D1*
X1520514Y1288481D1*
X1508300D1*
X1496227Y1282444D1*
X1490050Y1276267D1*
X1484013Y1258017D1*
Y1203408D1*
X1611623D1*
X1544800Y1245944D2*
X1611623Y1288481D1*
X1502264Y1400556D2*
X1490190Y1394520D1*
X1484154Y1376270D1*
Y1364196D1*
X1490190Y1345947D1*
X1508440Y1333733D1*
X1538764Y1327696D1*
X1569087D1*
X1593373Y1333733D1*
X1605587Y1345946D1*
X1611623Y1364196D1*
Y1370233D1*
X1605587Y1388342D1*
X1593373Y1400556D1*
X1575123Y1406593D1*
X1569087D1*
X1550837Y1400556D1*
X1538764Y1388343D1*
X1532727Y1370233D1*
Y1364196D1*
X1538764Y1345946D1*
X1550837Y1333733D1*
X1569087Y1327696D1*
X1446457Y180719D2*
Y235329D1*
X1440280Y253579D1*
X1434243Y259756D1*
X1422170Y265792D1*
X1409957D1*
X1397884Y259756D1*
X1391707Y253579D1*
X1385670Y235329D1*
Y180719D1*
X1513280D1*
X1446457Y223256D2*
X1513280Y265792D1*
Y329294D2*
X1385811Y390081D1*
Y305008D1*
X4149226Y129293D2*
X4203836D1*
X4222086Y135470D1*
X4228262Y141507D1*
X4234299Y153580D1*
Y165793D1*
X4228262Y177866D1*
X4222086Y184043D1*
X4203836Y190080D1*
X4149226D1*
Y62470D1*
X4191762Y129293D2*
X4234299Y62470D1*
X4303838Y189940D2*
X4285728Y183903D1*
X4279551Y171830D1*
Y159616D1*
X4285728Y147543D1*
X4297801Y141366D1*
X4322088Y135330D1*
X4340338Y129293D1*
X4352411Y117080D1*
X4358447Y105007D1*
Y86757D1*
X4352411Y74684D1*
X4346374Y68507D1*
X4328124Y62470D1*
X4303838D1*
X4285728Y68507D1*
X4279551Y74684D1*
X4273515Y86757D1*
Y105007D1*
X4279551Y117080D1*
X4291765Y129293D1*
X4309874Y135330D1*
X4334161Y141366D1*
X4346374Y147543D1*
X4352411Y159616D1*
Y171830D1*
X4346374Y183903D1*
X4328124Y189940D1*
X4303838D1*
X1564800Y383338D2*
Y437947D1*
X1558623Y456197D1*
X1552587Y462374D1*
X1540514Y468411D1*
X1528300D1*
X1516227Y462374D1*
X1510050Y456197D1*
X1504013Y437947D1*
Y383338D1*
X1631623D1*
X1564800Y425874D2*
X1631623Y468411D1*
X1546550Y586663D2*
X1564800Y580486D1*
X1577014Y568413D1*
X1583050Y550163D1*
Y544126D1*
X1577014Y525876D1*
X1564800Y513803D1*
X1546550Y507626D1*
X1540514D1*
X1522264Y513803D1*
X1510190Y525876D1*
X1504154Y544126D1*
Y550163D1*
X1510190Y568413D1*
X1522264Y580486D1*
X1546550Y586663D1*
X1577014D1*
X1607337Y580486D1*
X1625587Y568413D1*
X1631623Y550163D1*
Y538090D1*
X1625587Y519840D1*
X1613373Y513803D1*
X3204800Y675480D2*
Y730089D1*
X3198623Y748339D1*
X3192587Y754516D1*
X3180514Y760553D1*
X3168300D1*
X3156227Y754516D1*
X3150050Y748339D1*
X3144013Y730089D1*
Y675480D1*
X3271623D1*
X3204800Y718016D2*
X3271623Y760553D1*
X3168440Y799768D2*
X3162264Y811982D1*
X3144154Y830232D1*
X3271623D1*
X3144154Y905948D2*
X3150190Y887698D1*
X3168440Y875484D1*
X3198764Y869448D1*
X3217014Y869447D1*
X3247337Y875484D1*
X3265587Y887697D1*
X3271623Y905947D1*
Y918021D1*
X3265587Y936271D1*
X3247337Y948344D1*
X3217013Y954521D1*
X3198764D1*
X3168440Y948344D1*
X3150190Y936271D1*
X3144154Y918021D1*
Y905948D1*
X3168440Y948344D2*
X3247337Y875484D1*
X687784Y1530200D2*
X742394D1*
X760644Y1536377D1*
X766821Y1542414D1*
X772857Y1554487D1*
Y1566700D1*
X766821Y1578773D1*
X760644Y1584950D1*
X742394Y1590987D1*
X687784D1*
Y1463377D1*
X730321Y1530200D2*
X772857Y1463377D1*
X812073Y1566560D2*
X824287Y1572737D1*
X842537Y1590846D1*
Y1463377D1*
X881752Y1566560D2*
X893966Y1572737D1*
X912216Y1590846D1*
Y1463377D1*
X984897Y969543D2*
Y878434D1*
X990934Y860184D1*
X1003147Y848111D1*
X1021397Y841934D1*
X1033470D1*
X1051720Y848111D1*
X1063934Y860184D1*
X1069970Y878434D1*
Y969543D1*
X1109186Y945116D2*
X1121399Y951293D1*
X1139649Y969403D1*
Y841934D1*
X3603510Y275329D2*
X3694620D1*
X3712870Y281366D1*
X3724943Y293579D1*
X3731120Y311829D1*
Y323902D1*
X3724943Y342152D1*
X3712870Y354366D1*
X3694620Y360402D1*
X3603510D1*
X3633974Y405795D2*
X3627937D1*
X3615724Y411832D1*
X3609687Y417868D1*
X3603651Y430081D1*
Y454368D1*
X3609687Y466441D1*
X3615724Y472478D1*
X3627937Y478655D1*
X3640010Y478654D1*
X3652224Y472478D1*
X3670333Y460404D1*
X3731120Y399618D1*
Y484691D1*
X4683140Y1721146D2*
D95*
Y1502427D1*
X4573921Y1611646D2*
X4792640D1*
X4510000Y1399508D2*
D94*
X4597375D1*
X4626575Y1409391D1*
X4636458Y1419050D1*
X4646117Y1438367D1*
Y1457908D1*
X4636458Y1477225D1*
X4626575Y1487108D1*
X4597375Y1496767D1*
X4510000D1*
Y1292591D1*
X4578058Y1399508D2*
X4646117Y1292591D1*
X4708862Y1428708D2*
X4815779Y1292591D1*
Y1428708D2*
X4708862Y1292591D1*
X4578058Y1206767D2*
Y1002591D1*
X4510000Y1206767D2*
X4646117D1*
X4708862Y1138708D2*
X4815779Y1002591D1*
Y1138708D2*
X4708862Y1002591D1*
X4650000Y676767D2*
Y472591D1*
X4737600D1*
X4766800Y482474D1*
X4776458Y492133D1*
X4786117Y511450D1*
Y540650D1*
X4776458Y560191D1*
X4766800Y569850D1*
X4737600Y579508D1*
X4766800Y589391D1*
X4776458Y599050D1*
X4786117Y618367D1*
Y637908D1*
X4776458Y657225D1*
X4766800Y667108D1*
X4737600Y676767D1*
X4650000D1*
Y579508D2*
X4737600D1*
X4785658Y742594D2*
X4707717Y946770D1*
X4630000Y742594D1*
X4659200Y810653D2*
X4756458D1*
X4435775Y398250D2*
X4426117Y417567D1*
X4406575Y437108D1*
X4387258Y446767D1*
X4348400D1*
X4328858Y437108D1*
X4309541Y417567D1*
X4299658Y398250D1*
X4290000Y369050D1*
Y320308D1*
X4299658Y291333D1*
X4309541Y271791D1*
X4328858Y252474D1*
X4348400Y242591D1*
X4387258D1*
X4406575Y252474D1*
X4426117Y271791D1*
X4435775Y291333D1*
Y320308D1*
X4387258D1*
X4498520Y378708D2*
Y242591D1*
Y339850D2*
X4527720Y369050D1*
X4547262Y378708D1*
X4576237D1*
X4595779Y369050D1*
X4605437Y339850D1*
Y242591D1*
X4784757Y446767D2*
Y242591D1*
Y349508D2*
X4765441Y369050D1*
X4745899Y378708D1*
X4716699D1*
X4697382Y369050D1*
X4677841Y349508D1*
X4668182Y320308D1*
Y300991D1*
X4677841Y271791D1*
X4697382Y252474D1*
X4716699Y242591D1*
X4745899D1*
X4765441Y252474D1*
X4784757Y271791D1*
M02*
